<svg width="400" height="400" viewBox="0 0 400 400" xmlns="http://www.w3.org/2000/svg">
  <defs>
    <linearGradient id="noteGradient" x1="0%" y1="0%" x2="100%" y2="100%">
      <stop offset="0%" style="stop-color:rgba(255,107,53,0.8);stop-opacity:1" />
      <stop offset="50%" style="stop-color:rgba(255,139,66,0.6);stop-opacity:1" />
      <stop offset="100%" style="stop-color:rgba(196,69,105,0.4);stop-opacity:1" />
    </linearGradient>
    <filter id="glow">
      <feGaussianBlur stdDeviation="3" result="coloredBlur"/>
      <feMerge> 
        <feMergeNode in="coloredBlur"/>
        <feMergeNode in="SourceGraphic"/>
      </feMerge>
    </filter>
  </defs>
  
  <!-- Musical Notes Pattern -->
  <g fill="url(#noteGradient)" filter="url(#glow)" opacity="0.7">
    <!-- Treble Clef -->
    <path d="M50 100 Q70 80 90 100 Q70 120 50 100 Q30 80 50 60 Q90 40 90 80 Q90 140 50 160 Q30 180 50 200" stroke="rgba(255,107,53,0.8)" stroke-width="2" fill="none"/>
    
    <!-- Notes scattered around -->
    <circle cx="150" cy="80" r="8" />
    <circle cx="200" cy="120" r="6" />
    <circle cx="250" cy="90" r="7" />
    <circle cx="300" cy="140" r="8" />
    <circle cx="120" cy="180" r="6" />
    <circle cx="180" cy="210" r="7" />
    <circle cx="280" cy="200" r="6" />
    <circle cx="320" cy="170" r="8" />
    
    <!-- Staff lines -->
    <line x1="100" y1="250" x2="350" y2="250" stroke="rgba(255,139,66,0.5)" stroke-width="1"/>
    <line x1="100" y1="270" x2="350" y2="270" stroke="rgba(255,139,66,0.5)" stroke-width="1"/>
    <line x1="100" y1="290" x2="350" y2="290" stroke="rgba(255,139,66,0.5)" stroke-width="1"/>
    <line x1="100" y1="310" x2="350" y2="310" stroke="rgba(255,139,66,0.5)" stroke-width="1"/>
    <line x1="100" y1="330" x2="350" y2="330" stroke="rgba(255,139,66,0.5)" stroke-width="1"/>
    
    <!-- Sound waves -->
    <path d="M60 300 Q80 280 100 300 Q120 320 140 300 Q160 280 180 300" stroke="rgba(196,69,105,0.6)" stroke-width="2" fill="none"/>
    <path d="M220 320 Q240 300 260 320 Q280 340 300 320 Q320 300 340 320" stroke="rgba(196,69,105,0.6)" stroke-width="2" fill="none"/>
  </g>
</svg>